<svg width="535.775px" height="148.4px" xmlns="http://www.w3.org/2000/svg" viewBox="-17.88749999999999 0.7999999999999972 535.775 148.4" style="background: rgba(0, 0, 0, 0);" preserveAspectRatio="xMidYMid"><defs><filter id="editing-extrusion" x="-100%" y="-100%" width="300%" height="300%"><feFlood result="color1" flood-color="#444"></feFlood><feConvolveMatrix order="8,8" divisor="1" kernelMatrix="1 0 0 0 0 0 0 0 0 1 0 0 0 0 0 0 0 0 1 0 0 0 0 0 0 0 0 1 0 0 0 0 0 0 0 0 1 0 0 0 0 0 0 0 0 1 0 0 0 0 0 0 0 0 1 0 0 0 0 0 0 0 0 1" in="SourceAlpha" result="extrude"></feConvolveMatrix><feComposite in="color1" in2="extrude" result="comp-extrude" operator="in"></feComposite><feOffset dx="4" dy="4" in="comp-extrude" result="offset-extrude"></feOffset><feMerge><feMergeNode in="offset-extrude"></feMergeNode><feMergeNode in="SourceGraphic"></feMergeNode></feMerge></filter></defs><g filter="url(#editing-extrusion)"><g transform="translate(60.399988532066345, 98.71500205993652)"><path d="M13.44-13.12L13.44-13.12L13.44-13.12Q13.44-8.70 19.81-8.70L19.81-8.70L19.81-8.70Q26.18-8.70 26.18-12.67L26.18-12.67L26.18-12.67Q26.18-14.78 24-16.13L24-16.13L24-16.13Q21.82-17.47 18.72-18.37L18.72-18.37L18.72-18.37Q15.62-19.26 12.51-20.45L12.51-20.45L12.51-20.45Q9.41-21.63 7.23-24.16L7.23-24.16L7.23-24.16Q5.06-26.69 5.06-30.46L5.06-30.46L5.06-30.46Q5.06-46.53 25.73-46.53L25.73-46.53L25.73-46.53Q33.28-46.53 37.15-43.68L37.15-43.68L37.15-43.68Q41.02-40.83 41.02-35.78L41.02-35.78L41.02-35.78Q41.02-33.92 40.54-32.22L40.54-32.22L40.54-32.22Q40.06-30.53 39.55-29.82L39.55-29.82L39.04-29.06L27.71-29.06L27.71-29.06Q29.12-30.53 29.12-32.77L29.12-32.77L29.12-32.77Q29.12-36.93 23.68-36.93L23.68-36.93L23.68-36.93Q16.83-36.93 16.83-32.58L16.83-32.58L16.83-32.58Q16.83-30.40 19.01-29.12L19.01-29.12L19.01-29.12Q21.18-27.84 24.29-27.10L24.29-27.10L24.29-27.10Q27.39-26.37 30.53-25.28L30.53-25.28L30.53-25.28Q33.66-24.19 35.84-21.66L35.84-21.66L35.84-21.66Q38.02-19.14 38.02-15.10L38.02-15.10L38.02-15.10Q38.02-6.98 33.15-3.04L33.15-3.04L33.15-3.04Q28.29 0.90 18.18 0.90L18.18 0.90L18.18 0.90Q8.06 0.90 4.35-2.69L4.35-2.69L4.35-2.69Q1.60-5.38 1.60-10.11L1.60-10.11L1.60-10.11Q1.60-11.90 1.98-14.02L1.98-14.02L2.18-15.04L13.70-15.04L13.57-14.27L13.57-14.27Q13.44-13.63 13.44-13.12ZM95.87-8.19L95.87-8.19L95.87-8.19Q97.34-8.19 98.50-8.83L98.50-8.83L98.18-1.60L98.18-1.60Q95.17 0.90 91.33 0.90L91.33 0.90L91.33 0.90Q82.62 0.90 82.62-6.40L82.62-6.40L82.62-6.40Q82.62-7.68 82.88-9.15L82.88-9.15L84.22-17.02L84.22-17.02Q84.42-18.18 84.42-19.33L84.42-19.33L84.42-19.33Q84.42-22.40 81.06-22.40L81.06-22.40L81.06-22.40Q77.70-22.40 75.78-19.78L75.78-19.78L72.32 0L61.44 0L64.45-17.02L64.45-17.02Q64.64-18.18 64.64-19.33L64.64-19.33L64.64-19.33Q64.64-22.40 61.18-22.40L61.18-22.40L61.18-22.40Q58.43-22.40 56.45-20.29L56.45-20.29L52.86 0L41.98 0L47.42-30.78L57.54-30.78L56.83-26.94L56.83-26.94Q60.67-31.68 66.56-31.68L66.56-31.68L66.56-31.68Q74.88-31.68 76.03-26.18L76.03-26.18L76.03-26.18Q79.87-31.68 86.30-31.68L86.30-31.68L86.30-31.68Q92.74-31.68 94.66-28.80L94.66-28.80L94.66-28.80Q95.94-26.82 95.94-24.45L95.94-24.45L95.94-24.45Q95.94-22.08 95.62-20.16L95.62-20.16L94.02-10.62L94.02-10.62Q93.95-10.24 93.95-9.92L93.95-9.92L93.95-9.92Q93.95-8.19 95.87-8.19ZM132.29-9.86L132.29-9.86L132.29-9.86Q132.29-8.19 133.98-8.19L133.98-8.19L133.98-8.19Q135.68-8.19 136.83-8.83L136.83-8.83L136.51-1.60L136.51-1.60Q133.44 0.90 129.60 0.90L129.60 0.90L129.60 0.90Q122.56 0.90 121.79-4.22L121.79-4.22L121.79-4.22Q118.59 0.90 112.38 0.90L112.38 0.90L112.38 0.90Q101.89 0.90 101.89-8.13L101.89-8.13L101.89-8.13Q101.89-9.66 102.21-11.52L102.21-11.52L103.55-19.01L103.55-19.01Q104.58-24.77 108.26-28.19L108.26-28.19L108.26-28.19Q111.94-31.62 117.86-31.62L117.86-31.62L117.86-31.62Q123.78-31.62 125.89-28.86L125.89-28.86L126.21-30.78L135.94-30.78L132.35-10.62L132.35-10.62Q132.29-10.24 132.29-9.86ZM114.18-17.73L113.34-12.93L113.34-12.93Q113.22-12.35 113.22-11.33L113.22-11.33L113.22-11.33Q113.22-10.30 114.18-9.31L114.18-9.31L114.18-9.31Q115.14-8.32 117.41-8.32L117.41-8.32L117.41-8.32Q119.68-8.32 121.34-10.11L121.34-10.11L123.26-20.86L123.26-20.86Q122.56-22.46 119.94-22.46L119.94-22.46L119.94-22.46Q115.01-22.46 114.18-17.73L114.18-17.73ZM171.84-24.26L171.84-24.26L171.84-24.26Q171.84-22.08 171.10-20.03L171.10-20.03L171.10-20.03Q170.37-17.98 169.66-17.02L169.66-17.02L168.96-16.13L159.30-16.13L159.30-16.13Q160.90-17.60 160.90-19.78L160.90-19.78L160.90-19.78Q160.90-20.93 160.16-21.66L160.16-21.66L160.16-21.66Q159.42-22.40 158.14-22.40L158.14-22.40L158.14-22.40Q155.97-22.40 154.37-20.22L154.37-20.22L150.78 0L139.90 0L145.34-30.78L155.46-30.78L154.69-26.50L154.69-26.50Q158.34-31.68 163.52-31.68L163.52-31.68L163.52-31.68Q167.68-31.68 169.76-29.70L169.76-29.70L169.76-29.70Q171.84-27.71 171.84-24.26ZM187.39 0.90L187.39 0.90L187.39 0.90Q179.97 0.90 176.70-2.43L176.70-2.43L176.70-2.43Q174.27-4.86 174.27-8.96L174.27-8.96L174.27-8.96Q174.27-10.30 174.53-11.84L174.53-11.84L178.88-36.61L190.59-41.47L188.74-30.78L206.40-30.78L204.80-21.76L187.14-21.76L185.86-14.53L185.86-14.53Q185.60-13.31 185.60-12.35L185.60-12.35L185.60-12.35Q185.60-8.32 189.44-8.32L189.44-8.32L189.44-8.32Q191.49-8.32 192.86-10.05L192.86-10.05L192.86-10.05Q194.24-11.78 194.75-14.66L194.75-14.66L205.38-14.66L205.38-14.66Q202.69 0.90 187.39 0.90ZM240.77-46.08L252.29-46.08L244.22 0L232.64 0L224.58-25.22L220.22 0L208.64 0L216.77-46.08L228.67-46.08L236.61-22.53L240.77-46.08ZM266.37 0.90L266.37 0.90L266.37 0.90Q253.06 0.90 253.06-8.32L253.06-8.32L253.06-8.32Q253.06-9.60 253.31-11.07L253.31-11.07L254.66-19.01L254.66-19.01Q255.74-25.15 260.32-28.45L260.32-28.45L260.32-28.45Q264.90-31.74 272.45-31.74L272.45-31.74L272.45-31.74Q285.31-31.74 285.31-22.02L285.31-22.02L285.31-22.02Q285.31-20.61 285.06-18.94L285.06-18.94L284.29-14.40L264.77-14.40L264.51-12.93L264.51-12.93Q264.38-12.16 264.38-11.52L264.38-11.52L264.38-11.52Q264.38-8 268.54-8L268.54-8L268.54-8Q270.08-8 271.17-8.96L271.17-8.96L271.17-8.96Q272.26-9.92 272.45-11.20L272.45-11.20L283.07-11.07L283.07-11.07Q280.96 0.90 266.37 0.90ZM265.41-18.30L274.05-18.30L274.05-18.30Q274.30-19.39 274.30-20.32L274.30-20.32L274.30-20.32Q274.30-21.25 273.47-22.21L273.47-22.21L273.47-22.21Q272.64-23.17 270.82-23.17L270.82-23.17L270.82-23.17Q268.99-23.17 267.49-21.95L267.49-21.95L267.49-21.95Q265.98-20.74 265.41-18.30L265.41-18.30ZM330.18-30.78L341.06-30.78L341.06-30.78Q341.95-28.10 341.95-23.65L341.95-23.65L341.95-23.65Q341.95-19.20 340.86-15.10L340.86-15.10L340.86-15.10Q339.78-11.01 337.57-7.33L337.57-7.33L337.57-7.33Q335.36-3.65 331.42-1.38L331.42-1.38L331.42-1.38Q327.49 0.90 322.37 0.90L322.37 0.90L322.37 0.90Q314.69 0.90 312.13-3.39L312.13-3.39L312.13-3.39Q307.52 0.90 301.82 0.90L301.82 0.90L301.82 0.90Q294.14 0.90 291.26-2.37L291.26-2.37L291.26-2.37Q289.34-4.54 289.34-8.83L289.34-8.83L289.34-8.83Q289.34-11.07 289.86-13.82L289.86-13.82L292.86-30.78L303.74-30.78L300.74-13.76L300.74-13.76Q300.54-12.80 300.54-12.03L300.54-12.03L300.54-12.03Q300.54-8.38 304.32-8.38L304.32-8.38L304.32-8.38Q306.94-8.38 308.29-10.66L308.29-10.66L308.29-10.66Q309.63-12.93 310.59-18.62L310.59-18.62L312.77-30.78L323.65-30.78L320.64-13.76L320.64-13.76Q320.45-12.80 320.45-12.03L320.45-12.03L320.45-12.03Q320.45-8.38 324.22-8.38L324.22-8.38L324.22-8.38Q330.88-8.38 330.88-22.34L330.88-22.34L330.88-22.34Q330.88-25.60 330.37-29.57L330.37-29.57L330.18-30.78ZM377.60-24.13L377.60-24.13L377.60-24.13Q377.60-22.02 376.32-20.22L376.32-20.22L365.82-20.22L365.82-20.22Q366.34-20.61 366.34-21.50L366.34-21.50L366.34-21.50Q366.34-22.40 365.31-22.94L365.31-22.94L365.31-22.94Q364.29-23.49 362.69-23.49L362.69-23.49L362.69-23.49Q357.89-23.49 357.89-20.54L357.89-20.54L357.89-20.54Q357.89-19.39 359.68-18.88L359.68-18.88L359.68-18.88Q361.47-18.37 364.03-18.05L364.03-18.05L364.03-18.05Q366.59-17.73 369.15-17.12L369.15-17.12L369.15-17.12Q371.71-16.51 373.50-14.72L373.50-14.72L373.50-14.72Q375.30-12.93 375.30-9.92L375.30-9.92L375.30-9.92Q375.30-4.61 371.04-1.86L371.04-1.86L371.04-1.86Q366.78 0.90 358.66 0.90L358.66 0.90L358.66 0.90Q350.53 0.90 347.26-1.73L347.26-1.73L347.26-1.73Q344.70-3.78 344.70-7.36L344.70-7.36L344.70-7.36Q344.70-8.38 344.90-9.47L344.90-9.47L355.58-9.60L355.58-9.60Q355.46-8.70 356.64-8.03L356.64-8.03L356.64-8.03Q357.82-7.36 360.13-7.36L360.13-7.36L360.13-7.36Q362.43-7.36 363.46-7.84L363.46-7.84L363.46-7.84Q364.48-8.32 364.48-9.66L364.48-9.66L364.48-9.66Q364.48-10.56 362.69-10.91L362.69-10.91L362.69-10.91Q360.90-11.26 358.30-11.52L358.30-11.52L358.30-11.52Q355.71-11.78 353.12-12.35L353.12-12.35L353.12-12.35Q350.53-12.93 348.74-14.78L348.74-14.78L348.74-14.78Q346.94-16.64 346.94-19.65L346.94-19.65L346.94-19.65Q346.94-25.47 351.46-28.61L351.46-28.61L351.46-28.61Q355.97-31.74 364.48-31.74L364.48-31.74L364.48-31.74Q377.60-31.74 377.60-24.13Z" fill="#ccc"></path></g></g><style>text {
  font-size: 64px;
  font-family: Arial Black;
  dominant-baseline: central;
  text-anchor: middle;
}</style></svg>