<svg width="716.675px" height="143.6px" xmlns="http://www.w3.org/2000/svg" viewBox="-108.33749999999998 3.200000000000003 716.675 143.6" style="background: rgba(0, 0, 0, 0);" preserveAspectRatio="xMidYMid"><defs><filter id="editing-raise" x="-100%" y="-100%" width="300%" height="300%"><feFlood flood-color="#ccc" result="flood-surface"></feFlood><feFlood flood-color="#777" result="flood-extrude"></feFlood><feMorphology operator="erode" in="SourceAlpha" radius="1" result="erode"></feMorphology><feConvolveMatrix in="erode" result="shadow" order="11,8" divisor="1" kernelMatrix="0 0 0 1 1 1 1 1 0 0 0 0 0 1 0 0 0 0 0 1 0 0 0 0 1 0 0 0 0 0 1 0 0 0 0 1 0 0 0 0 0 1 0 0 0 0 1 0 0 0 0 0 1 0 0 0 0 0 1 0 0 0 1 0 0 0 0 0 0 1 1 0 1 1 0 0 0 0 0 0 0 0 1 0 0 0 0 0"></feConvolveMatrix><feOffset dx="0" dy="4" in="shadow" result="offset"></feOffset><feGaussianBlur in="offset" stdDeviation="0.2" result="blur"></feGaussianBlur><feComposite operator="in" in="flood-extrude" in2="blur" result="extrude"></feComposite><feMorphology operator="erode" in="SourceAlpha" radius="1" result="erode2"></feMorphology><feConvolveMatrix in="erode2" result="out" order="4,4" divisor="1" kernelMatrix="0 1 1 0 1 0 0 1 1 0 0 1 0 1 1 0 "></feConvolveMatrix><feComposite operator="in" in="flood-surface" in2="out" result="text"></feComposite><feMerge><feMergeNode in="extrude"></feMergeNode><feMergeNode in="text"></feMergeNode></feMerge></filter></defs><g filter="url(#editing-raise)"><g transform="translate(-6.190011501312256, 100.06500434875488)"><path d="M28-27L36.25-27L36.25-27Q41.19-27 44.72-26.59L44.72-26.59L44.72-26.59Q48.25-26.19 50.67-25.39L50.67-25.39L50.67-25.39Q53.09-24.59 54.53-23.41L54.53-23.41L54.53-23.41Q55.97-22.22 56.75-20.70L56.75-20.70L56.75-20.70Q57.53-19.19 57.77-17.31L57.77-17.31L57.77-17.31Q58-15.44 58-13.25L58-13.25L58-13.25Q58-11.06 57.61-9.14L57.61-9.14L57.61-9.14Q57.22-7.22 56.22-5.63L56.22-5.63L56.22-5.63Q55.22-4.03 53.50-2.78L53.50-2.78L53.50-2.78Q51.78-1.53 49.13-0.66L49.13-0.66L49.13-0.66Q46.47 0.22 42.73 0.67L42.73 0.67L42.73 0.67Q39 1.13 34 1.13L34 1.13L26 1.13L26 1.13Q21.50 1.13 18.13 0.78L18.13 0.78L18.13 0.78Q14.75 0.44 12.31-0.27L12.31-0.27L12.31-0.27Q9.88-0.97 8.28-2.05L8.28-2.05L8.28-2.05Q6.69-3.13 5.73-4.58L5.73-4.58L5.73-4.58Q4.78-6.03 4.41-7.89L4.41-7.89L4.41-7.89Q4.03-9.75 4.03-12L4.03-12L10.03-12L10.03-12Q10.03-9.19 10.84-7.59L10.84-7.59L10.84-7.59Q11.66-6 13.53-5.20L13.53-5.20L13.53-5.20Q15.41-4.41 18.45-4.20L18.45-4.20L18.45-4.20Q21.50-4 26-4L26-4L34-4L34-4Q39.25-4 42.72-4.50L42.72-4.50L42.72-4.50Q46.19-5 48.25-6.09L48.25-6.09L48.25-6.09Q50.31-7.19 51.16-8.95L51.16-8.95L51.16-8.95Q52-10.72 52-13.25L52-13.25L52-13.25Q52-15.78 51.42-17.47L51.42-17.47L51.42-17.47Q50.84-19.16 49.14-20.16L49.14-20.16L49.14-20.16Q47.44-21.16 44.34-21.58L44.34-21.58L44.34-21.58Q41.25-22 36.25-22L36.25-22L28-22L28-22Q22.50-22 18.58-22.41L18.58-22.41L18.58-22.41Q14.66-22.81 12-23.58L12-23.58L12-23.58Q9.34-24.34 7.75-25.48L7.75-25.48L7.75-25.48Q6.16-26.63 5.33-28.09L5.33-28.09L5.33-28.09Q4.50-29.56 4.25-31.36L4.25-31.36L4.25-31.36Q4-33.16 4-35.25L4-35.25L4-35.25Q4-37.44 4.39-39.31L4.39-39.31L4.39-39.31Q4.78-41.19 5.84-42.70L5.84-42.70L5.84-42.70Q6.91-44.22 8.75-45.41L8.75-45.41L8.75-45.41Q10.59-46.59 13.48-47.39L13.48-47.39L13.48-47.39Q16.38-48.19 20.44-48.59L20.44-48.59L20.44-48.59Q24.50-49 30-49L30-49L36-49L36-49Q40.50-49 43.88-48.67L43.88-48.67L43.88-48.67Q47.25-48.34 49.69-47.64L49.69-47.64L49.69-47.64Q52.13-46.94 53.73-45.89L53.73-45.89L53.73-45.89Q55.34-44.84 56.30-43.39L56.30-43.39L56.30-43.39Q57.25-41.94 57.63-40.09L57.63-40.09L57.63-40.09Q58-38.25 58-36L58-36L52-36L52-36Q52-38.81 51.19-40.41L51.19-40.41L51.19-40.41Q50.38-42 48.50-42.80L48.50-42.80L48.50-42.80Q46.63-43.59 43.56-43.80L43.56-43.80L43.56-43.80Q40.50-44 36-44L36-44L30-44L30-44Q24-44 20.13-43.58L20.13-43.58L20.13-43.58Q16.25-43.16 14-42.16L14-42.16L14-42.16Q11.75-41.16 10.88-39.47L10.88-39.47L10.88-39.47Q10-37.78 10-35.25L10-35.25L10-35.25Q10-33.69 10.22-32.47L10.22-32.47L10.22-32.47Q10.44-31.25 11.11-30.33L11.11-30.33L11.11-30.33Q11.78-29.41 13-28.78L13-28.78L13-28.78Q14.22-28.16 16.22-27.75L16.22-27.75L16.22-27.75Q18.22-27.34 21.11-27.17L21.11-27.17L21.11-27.17Q24-27 28-27L28-27ZM104-22.31L104 0L98 0L98-20.31L98-20.31Q98-23.56 97.58-25.80L97.58-25.80L97.58-25.80Q97.16-28.03 95.86-29.41L95.86-29.41L95.86-29.41Q94.56-30.78 92.20-31.39L92.20-31.39L92.20-31.39Q89.84-32 86-32L86-32L86-32Q81.78-32 79.06-31.30L79.06-31.30L79.06-31.30Q76.34-30.59 74.78-29.33L74.78-29.33L74.78-29.33Q73.22-28.06 72.61-26.28L72.61-26.28L72.61-26.28Q72-24.50 72-22.31L72-22.31L72 0L66 0L66-36L72-36L72-30.31L72-30.31Q72.03-30.41 72.28-30.94L72.28-30.94L72.28-30.94Q72.53-31.47 73.17-32.20L73.17-32.20L73.17-32.20Q73.81-32.94 74.92-33.78L74.92-33.78L74.92-33.78Q76.03-34.63 77.80-35.34L77.80-35.34L77.80-35.34Q79.56-36.06 82.06-36.53L82.06-36.53L82.06-36.53Q84.56-37 88-37L88-37L88-37Q91.38-37 93.86-36.58L93.86-36.58L93.86-36.58Q96.34-36.16 98.11-35.33L98.11-35.33L98.11-35.33Q99.88-34.50 100.98-33.27L100.98-33.27L100.98-33.27Q102.09-32.03 102.75-30.44L102.75-30.44L102.75-30.44Q103.28-31.28 104.41-32.41L104.41-32.41L104.41-32.41Q105.53-33.53 107.55-34.56L107.55-34.56L107.55-34.56Q109.56-35.59 112.59-36.30L112.59-36.30L112.59-36.30Q115.63-37 120-37L120-37L120-37Q123.59-37 126.17-36.52L126.17-36.52L126.17-36.52Q128.75-36.03 130.53-35.08L130.53-35.08L130.53-35.08Q132.31-34.13 133.39-32.72L133.39-32.72L133.39-32.72Q134.47-31.31 135.05-29.45L135.05-29.45L135.05-29.45Q135.63-27.59 135.81-25.30L135.81-25.30L135.81-25.30Q136-23 136-20.31L136-20.31L136 0L130 0L130-20.31L130-20.31Q130-23.56 129.58-25.80L129.58-25.80L129.58-25.80Q129.16-28.03 127.86-29.41L127.86-29.41L127.86-29.41Q126.56-30.78 124.20-31.39L124.20-31.39L124.20-31.39Q121.84-32 118-32L118-32L118-32Q113.78-32 111.06-31.30L111.06-31.30L111.06-31.30Q108.34-30.59 106.78-29.33L106.78-29.33L106.78-29.33Q105.22-28.06 104.61-26.28L104.61-26.28L104.61-26.28Q104-24.50 104-22.31L104-22.31ZM179.84 0L179.84-4.94L179.84-4.94Q179.75-4.56 178.44-3.06L178.44-3.06L178.44-3.06Q177.50-1.94 175.94-1.08L175.94-1.08L175.94-1.08Q174.38-0.22 171.77 0.27L171.77 0.27L171.77 0.27Q169.16 0.75 164.91 0.75L164.91 0.75L164.91 0.75Q159.25 0.75 155.25 0.17L155.25 0.17L155.25 0.17Q151.25-0.41 148.72-1.61L148.72-1.61L148.72-1.61Q146.19-2.81 145.02-4.69L145.02-4.69L145.02-4.69Q143.84-6.56 143.84-9.16L143.84-9.16L143.84-9.16Q143.84-11.88 144.48-13.77L144.48-13.77L144.48-13.77Q145.13-15.66 146.36-16.94L146.36-16.94L146.36-16.94Q147.59-18.22 149.34-18.94L149.34-18.94L149.34-18.94Q151.09-19.66 153.33-20.03L153.33-20.03L153.33-20.03Q155.56-20.41 158.22-20.50L158.22-20.50L158.22-20.50Q160.88-20.59 163.88-20.59L163.88-20.59L163.88-20.59Q168.16-20.59 171.03-20.23L171.03-20.23L171.03-20.23Q173.91-19.88 175.73-19.33L175.73-19.33L175.73-19.33Q177.56-18.78 178.50-18.16L178.50-18.16L178.50-18.16Q179.44-17.53 179.84-17L179.84-17L179.84-17Q179.84-20.50 179.55-22.97L179.55-22.97L179.55-22.97Q179.25-25.44 178.58-27.09L178.58-27.09L178.58-27.09Q177.91-28.75 176.84-29.73L176.84-29.73L176.84-29.73Q175.78-30.72 174.23-31.22L174.23-31.22L174.23-31.22Q172.69-31.72 170.63-31.86L170.63-31.86L170.63-31.86Q168.56-32 165.91-32L165.91-32L165.91-32Q161.78-32 159.06-31.80L159.06-31.80L159.06-31.80Q156.34-31.59 154.75-31L154.75-31L154.75-31Q153.16-30.41 152.50-29.36L152.50-29.36L152.50-29.36Q151.84-28.31 151.84-26.63L151.84-26.63L145.84-26.63L145.84-26.63Q145.84-29.47 146.86-31.44L146.86-31.44L146.86-31.44Q147.88-33.41 150.23-34.64L150.23-34.64L150.23-34.64Q152.59-35.88 156.44-36.44L156.44-36.44L156.44-36.44Q160.28-37 165.91-37L165.91-37L165.91-37Q171.41-37 175.22-36.09L175.22-36.09L175.22-36.09Q179.03-35.19 181.39-32.91L181.39-32.91L181.39-32.91Q183.75-30.63 184.80-26.77L184.80-26.77L184.80-26.77Q185.84-22.91 185.84-17L185.84-17L185.84 0L179.84 0ZM165.91-4L165.91-4L165.91-4Q169.88-4 172.55-4.38L172.55-4.38L172.55-4.38Q175.22-4.75 176.84-5.50L176.84-5.50L176.84-5.50Q178.47-6.25 179.16-7.38L179.16-7.38L179.16-7.38Q179.84-8.50 179.84-10L179.84-10L179.84-10Q179.84-11.50 179.05-12.55L179.05-12.55L179.05-12.55Q178.25-13.59 176.39-14.25L176.39-14.25L176.39-14.25Q174.53-14.91 171.47-15.20L171.47-15.20L171.47-15.20Q168.41-15.50 163.91-15.50L163.91-15.50L163.91-15.50Q159.41-15.50 156.64-15.34L156.64-15.34L156.64-15.34Q153.88-15.19 152.38-14.63L152.38-14.63L152.38-14.63Q150.88-14.06 150.36-12.97L150.36-12.97L150.36-12.97Q149.84-11.88 149.84-10L149.84-10L149.84-10Q149.84-8.13 150.39-6.95L150.39-6.95L150.39-6.95Q150.94-5.78 152.63-5.13L152.63-5.13L152.63-5.13Q154.31-4.47 157.48-4.23L157.48-4.23L157.48-4.23Q160.66-4 165.91-4ZM229.84-24.28L224.84-24.28L224.84-24.28Q224.84-26.53 224.52-28.02L224.52-28.02L224.52-28.02Q224.19-29.50 222.97-30.39L222.97-30.39L222.97-30.39Q221.75-31.28 219.36-31.64L219.36-31.64L219.36-31.64Q216.97-32 212.84-32L212.84-32L212.84-32Q208.81-32 206.28-31.30L206.28-31.30L206.28-31.30Q203.75-30.59 202.31-29.31L202.31-29.31L202.31-29.31Q200.88-28.03 200.36-26.25L200.36-26.25L200.36-26.25Q199.84-24.47 199.84-22.28L199.84-22.28L199.84 0L193.84 0L193.84-36L199.84-36L199.84-30.28L199.84-30.28Q200.16-31.25 201-32.42L201-32.42L201-32.42Q201.84-33.59 203.56-34.61L203.56-34.61L203.56-34.61Q205.28-35.63 208.02-36.31L208.02-36.31L208.02-36.31Q210.75-37 214.84-37L214.84-37L214.84-37Q219.53-37 222.47-36.17L222.47-36.17L222.47-36.17Q225.41-35.34 227.05-33.73L227.05-33.73L227.05-33.73Q228.69-32.13 229.27-29.75L229.27-29.75L229.27-29.75Q229.84-27.38 229.84-24.28L229.84-24.28ZM263.84-16L268.84-16L268.84-16Q268.84-11.41 268.09-8.33L268.09-8.33L268.09-8.33Q267.34-5.25 265.58-3.41L265.58-3.41L265.58-3.41Q263.81-1.56 260.94-0.78L260.94-0.78L260.94-0.78Q258.06 0 253.84 0L253.84 0L253.84 0Q249.75 0 246.97-0.63L246.97-0.63L246.97-0.63Q244.19-1.25 242.47-2.75L242.47-2.75L242.47-2.75Q240.75-4.25 240-6.75L240-6.75L240-6.75Q239.25-9.25 239.25-13L239.25-13L239.25-31.06L231.84-31.06L231.84-36L239.25-36L239.25-45.84L245.25-45.84L245.25-36L267.84-36L267.84-31.06L245.25-31.06L245.25-13L245.25-13Q245.25-10 245.70-8.38L245.70-8.38L245.70-8.38Q246.16-6.75 247.16-6L247.16-6L247.16-6Q248.16-5.25 249.80-5.13L249.80-5.13L249.80-5.13Q251.44-5 253.81-5L253.81-5L253.81-5Q255.69-5 257.17-5.06L257.17-5.06L257.17-5.06Q258.66-5.13 259.77-5.45L259.77-5.45L259.77-5.45Q260.88-5.78 261.66-6.45L261.66-6.45L261.66-6.45Q262.44-7.13 262.92-8.34L262.92-8.34L262.92-8.34Q263.41-9.56 263.63-11.42L263.63-11.42L263.63-11.42Q263.84-13.28 263.84-16L263.84-16ZM284.84-43L284.84 0L278.84 0L278.84-48L289.38-48L333.38-6L333.38-48L339.38-48L339.38 0L331.38 0L284.84-43ZM370.38 0.69L370.38 0.69L370.38 0.69Q364.38 0.69 360.19-0.14L360.19-0.14L360.19-0.14Q356-0.97 353.38-3L353.38-3L353.38-3Q350.75-5.03 349.56-8.44L349.56-8.44L349.56-8.44Q348.38-11.84 348.38-17L348.38-17L348.38-17Q348.38-22.91 349.56-26.77L349.56-26.77L349.56-26.77Q350.75-30.63 353.38-32.91L353.38-32.91L353.38-32.91Q356-35.19 360.19-36.09L360.19-36.09L360.19-36.09Q364.38-37 370.38-37L370.38-37L370.38-37Q374.66-37 377.80-36.38L377.80-36.38L377.80-36.38Q380.94-35.75 383.17-34.56L383.17-34.56L383.17-34.56Q385.41-33.38 386.80-31.69L386.80-31.69L386.80-31.69Q388.19-30 388.98-28.14L388.98-28.14L388.98-28.14Q389.78-26.28 390.08-23.78L390.08-23.78L390.08-23.78Q390.38-21.28 390.38-18.50L390.38-18.50L389.88-16.50L354.38-16.50L354.38-16.50Q354.38-12.38 355.19-9.73L355.19-9.73L355.19-9.73Q356-7.09 357.88-5.88L357.88-5.88L357.88-5.88Q359.75-4.66 362.81-4.33L362.81-4.33L362.81-4.33Q365.88-4 370.38-4L370.38-4L370.38-4Q374.50-4 377.20-4.23L377.20-4.23L377.20-4.23Q379.91-4.47 381.50-5.13L381.50-5.13L381.50-5.13Q383.09-5.78 383.73-6.95L383.73-6.95L383.73-6.95Q384.38-8.13 384.38-10L384.38-10L390.38-10L390.38-10Q390.38-7.09 389.36-5.05L389.36-5.05L389.36-5.05Q388.34-3 386-1.73L386-1.73L386-1.73Q383.66-0.47 379.83 0.11L379.83 0.11L379.83 0.11Q376 0.69 370.38 0.69ZM370.38-32L370.38-32L370.38-32Q367.38-32 365.02-31.88L365.02-31.88L365.02-31.88Q362.66-31.75 360.89-31.33L360.89-31.33L360.89-31.33Q359.13-30.91 357.88-30.11L357.88-30.11L357.88-30.11Q356.63-29.31 355.86-28.23L355.86-28.23L355.86-28.23Q355.09-27.16 354.73-25.20L354.73-25.20L354.73-25.20Q354.38-23.25 354.38-20.50L354.38-20.50L384.38-20.50L384.38-20.50Q384.38-24.16 383.59-26.23L383.59-26.23L383.59-26.23Q382.81-28.31 381.13-29.66L381.13-29.66L381.13-29.66Q379.44-31 376.78-31.50L376.78-31.50L376.78-31.50Q374.13-32 370.38-32ZM446.38 0L460.38-36L453.38-36L442.25-4.50L430.38-36L424.38-36L412.38-4.50L401.38-36L394.38-36L408.38 0L416.38 0L427.38-29.50L438.38 0L446.38 0ZM487.38-16.41L487.38-16.41L487.38-16.41Q490.88-16.41 493.34-16.30L493.34-16.30L493.34-16.30Q495.81-16.19 497.48-15.92L497.48-15.92L497.48-15.92Q499.16-15.66 500.13-15.25L500.13-15.25L500.13-15.25Q501.09-14.84 501.59-14.05L501.59-14.05L501.59-14.05Q502.09-13.25 502.23-12.45L502.23-12.45L502.23-12.45Q502.38-11.66 502.38-10.63L502.38-10.63L502.38-10.63Q502.38-9.50 502.23-8.58L502.23-8.58L502.23-8.58Q502.09-7.66 501.56-6.91L501.56-6.91L501.56-6.91Q501.03-6.16 500-5.63L500-5.63L500-5.63Q498.97-5.09 497.19-4.72L497.19-4.72L497.19-4.72Q495.41-4.34 492.77-4.17L492.77-4.17L492.77-4.17Q490.13-4 486.38-4L486.38-4L486.38-4Q482.25-4 479.55-4.23L479.55-4.23L479.55-4.23Q476.84-4.47 475.25-5.13L475.25-5.13L475.25-5.13Q473.66-5.78 473.02-6.95L473.02-6.95L473.02-6.95Q472.38-8.13 472.38-10L472.38-10L466.38-10L466.38-10Q466.38-7.16 467.39-5.19L467.39-5.19L467.39-5.19Q468.41-3.22 470.75-1.98L470.75-1.98L470.75-1.98Q473.09-0.75 476.92-0.19L476.92-0.19L476.92-0.19Q480.75 0.38 486.38 0.38L486.38 0.38L486.38 0.38Q490.88 0.38 494.27 0.11L494.27 0.11L494.27 0.11Q497.66-0.16 500.09-0.70L500.09-0.70L500.09-0.70Q502.53-1.25 504.14-2.14L504.14-2.14L504.14-2.14Q505.75-3.03 506.69-4.27L506.69-4.27L506.69-4.27Q507.63-5.50 508-7.11L508-7.11L508-7.11Q508.38-8.72 508.38-10.75L508.38-10.75L508.38-10.75Q508.38-12.78 508-14.33L508-14.33L508-14.33Q507.63-15.88 506.70-17.02L506.70-17.02L506.70-17.02Q505.78-18.16 504.25-19.13L504.25-19.13L504.25-19.13Q502.72-20.09 500.38-20.56L500.38-20.56L500.38-20.56Q498.03-21.03 494.83-21.22L494.83-21.22L494.83-21.22Q491.63-21.41 487.38-21.41L487.38-21.41L487.38-21.41Q483.88-21.41 481.41-21.42L481.41-21.42L481.41-21.42Q478.94-21.44 477.27-21.61L477.27-21.61L477.27-21.61Q475.59-21.78 474.63-22.13L474.63-22.13L474.63-22.13Q473.66-22.47 473.16-23.13L473.16-23.13L473.16-23.13Q472.66-23.78 472.52-24.80L472.52-24.80L472.52-24.80Q472.38-25.81 472.38-26.88L472.38-26.88L472.38-26.88Q472.38-28.69 473.19-29.72L473.19-29.72L473.19-29.72Q474-30.75 475.88-31.25L475.88-31.25L475.88-31.25Q477.75-31.75 480.81-31.88L480.81-31.88L480.81-31.88Q483.88-32 488.38-32L488.38-32L488.38-32Q492.50-32 495.20-31.77L495.20-31.77L495.20-31.77Q497.91-31.53 499.50-30.92L499.50-30.92L499.50-30.92Q501.09-30.31 501.73-29.25L501.73-29.25L501.73-29.25Q502.38-28.19 502.38-26.50L502.38-26.50L508.38-26.50L508.38-26.50Q508.38-29.22 507.47-31.19L507.47-31.19L507.47-31.19Q506.56-33.16 504.30-34.45L504.30-34.45L504.30-34.45Q502.03-35.75 498.17-36.38L498.17-36.38L498.17-36.38Q494.31-37 488.38-37L488.38-37L488.38-37Q482.38-37 478.19-36.47L478.19-36.47L478.19-36.47Q474-35.94 471.38-34.73L471.38-34.73L471.38-34.73Q468.75-33.53 467.56-31.61L467.56-31.61L467.56-31.61Q466.38-29.69 466.38-26.88L466.38-26.88L466.38-26.88Q466.38-24.81 466.75-23.05L466.75-23.05L466.75-23.05Q467.13-21.28 468.03-20.08L468.03-20.08L468.03-20.08Q468.94-18.88 470.48-18.16L470.48-18.16L470.48-18.16Q472.03-17.44 474.36-17.05L474.36-17.05L474.36-17.05Q476.69-16.66 479.91-16.53L479.91-16.53L479.91-16.53Q483.13-16.41 487.38-16.41Z"></path></g></g><style>text {
  font-size: 64px;
  font-family: Arial Black;
  dominant-baseline: central;
  text-anchor: middle;
}</style></svg>